<svg xmlns="http://www.w3.org/2000/svg" xmlns:xlink="http://www.w3.org/1999/xlink" contentStyleType="text/css" height="686px" preserveAspectRatio="none" style="width:219px;height:686px;background:#FFFFFF;" version="1.1" viewBox="0 0 219 686" width="219px" zoomAndPan="magnify"><defs/><g><path d="M10,26.9167 C10,28.2053 11.0448,29.25 12.3333,29.25 L26.3333,29.25 C27.6219,29.25 28.6667,28.2053 28.6667,26.9167 L28.6667,17 C28.6667,15.7114 27.6219,14.6667 26.3333,14.6667 L21.0833,14.6667 C19.0055,14.6667 19.3333,11.75 16.1612,11.75 L12.3333,11.75 C11.0448,11.75 10,12.7948 10,14.0833 L10,26.9167 " fill="#226699" style="stroke:;stroke-width:0.0;stroke-dasharray:;"/><path d="M28.8627,17 L25.0348,17 C21.8627,17 21.8948,19.9167 19.8169,19.9167 L14.5669,19.9167 C13.2783,19.9167 12.1274,20.9614 11.9968,22.25 L11.7092,24.5098 L11.4035,26.9167 L11.3918,26.9155 C11.3242,27.2696 10.9998,27.4983 10.6335,27.4983 C10.2584,27.4983 9.9883,27.2025 10.007,26.8309 C10.0058,26.8601 10,26.8875 10,26.9167 C10,28.0857 10.8622,29.0447 11.9833,29.2144 C12.0866,29.2366 12.1998,29.25 12.3333,29.25 L27.5,29.25 C28.7886,29.25 29.9395,28.2053 30.0702,26.9167 L30.9586,19.3333 C31.0898,18.0448 30.1513,17 28.8627,17 " fill="#55ACEE" style="stroke:;stroke-width:0.0;stroke-dasharray:;"/><text fill="#000000" font-family="Courier" font-size="14" lengthAdjust="spacing" textLength="42.1436" x="31" y="29.4482">games</text><path d="M31,51.6667 C31,52.9553 32.0448,54 33.3333,54 L47.3333,54 C48.6219,54 49.6667,52.9553 49.6667,51.6667 L49.6667,41.75 C49.6667,40.4614 48.6219,39.4167 47.3333,39.4167 L42.0833,39.4167 C40.0055,39.4167 40.3333,36.5 37.1612,36.5 L33.3333,36.5 C32.0448,36.5 31,37.5448 31,38.8333 L31,51.6667 " fill="#226699" style="stroke:;stroke-width:0.0;stroke-dasharray:;"/><path d="M49.8627,41.75 L46.0348,41.75 C42.8627,41.75 42.8948,44.6667 40.8169,44.6667 L35.5669,44.6667 C34.2783,44.6667 33.1274,45.7114 32.9968,47 L32.7092,49.2598 L32.4035,51.6667 L32.3918,51.6655 C32.3242,52.0196 31.9998,52.2483 31.6335,52.2483 C31.2584,52.2483 30.9883,51.9525 31.007,51.5809 C31.0058,51.6101 31,51.6375 31,51.6667 C31,52.8357 31.8622,53.7947 32.9833,53.9644 C33.0866,53.9866 33.1998,54 33.3333,54 L48.5,54 C49.7886,54 50.9395,52.9553 51.0702,51.6667 L51.9586,44.0833 C52.0898,42.7948 51.1513,41.75 49.8627,41.75 " fill="#55ACEE" style="stroke:;stroke-width:0.0;stroke-dasharray:;"/><text fill="#000000" font-family="Courier" font-size="14" lengthAdjust="spacing" textLength="109.5732" x="52" y="54.1982">endlessrunner</text><path d="M52,76.4167 C52,77.7053 53.0448,78.75 54.3333,78.75 L68.3333,78.75 C69.6219,78.75 70.6667,77.7053 70.6667,76.4167 L70.6667,66.5 C70.6667,65.2114 69.6219,64.1667 68.3333,64.1667 L63.0833,64.1667 C61.0055,64.1667 61.3333,61.25 58.1612,61.25 L54.3333,61.25 C53.0448,61.25 52,62.2948 52,63.5833 L52,76.4167 " fill="#226699" style="stroke:;stroke-width:0.0;stroke-dasharray:;"/><path d="M70.8627,66.5 L67.0348,66.5 C63.8627,66.5 63.8948,69.4167 61.8169,69.4167 L56.5669,69.4167 C55.2783,69.4167 54.1274,70.4614 53.9968,71.75 L53.7092,74.0098 L53.4035,76.4167 L53.3918,76.4155 C53.3242,76.7696 52.9998,76.9983 52.6335,76.9983 C52.2584,76.9983 51.9883,76.7025 52.007,76.3309 C52.0058,76.3601 52,76.3875 52,76.4167 C52,77.5857 52.8622,78.5447 53.9833,78.7144 C54.0866,78.7366 54.1998,78.75 54.3333,78.75 L69.5,78.75 C70.7886,78.75 71.9395,77.7053 72.0702,76.4167 L72.9586,68.8333 C73.0898,67.5448 72.1513,66.5 70.8627,66.5 " fill="#55ACEE" style="stroke:;stroke-width:0.0;stroke-dasharray:;"/><text fill="#000000" font-family="Courier" font-size="14" lengthAdjust="spacing" textLength="50.5723" x="73" y="78.9482">images</text><path d="M91.9088,89.8418 L86.6588,84.5918 C86.4482,84.3813 86.1559,84.25 85.8333,84.25 C85.1893,84.25 84.6673,84.7727 84.6667,85.4167 C84.6667,85.7387 84.7973,86.0309 85.0085,86.2421 L82.7574,88.4932 L88.0074,93.7432 L90.2585,91.4921 C90.4697,91.7027 90.7613,91.8333 91.0833,91.8333 C91.7273,91.8333 92.2506,91.3107 92.25,90.6667 C92.25,90.3447 92.1193,90.053 91.9088,89.8418 " fill="#E1E8ED" style="stroke:;stroke-width:0.0;stroke-dasharray:;"/><path d="M85.8333,84.25 L77.0833,84.25 C75.7948,84.25 74.75,85.2948 74.75,86.5833 L74.75,102.9167 C74.75,104.2053 75.7948,105.25 77.0833,105.25 L89.9167,105.25 C91.2053,105.25 92.25,104.2053 92.25,102.9167 L92.25,90.6667 L87,90.6667 C86.4167,90.6667 85.8333,90.0833 85.8333,89.5 L85.8333,84.25 " fill="#CCD6DD" style="stroke:;stroke-width:0.0;stroke-dasharray:;"/><path d="M85.8333,84.25 L84.6667,84.25 L84.6667,89.5 C84.6667,90.7886 85.7114,91.8333 87,91.8333 L92.25,91.8333 L92.25,90.6667 L87,90.6667 C86.4167,90.6667 85.8333,90.0833 85.8333,89.5 L85.8333,84.25 M82.9167,88.9167 C82.9167,89.2387 82.6553,89.5 82.3333,89.5 L77.6667,89.5 C77.3447,89.5 77.0833,89.2387 77.0833,88.9167 C77.0833,88.5947 77.3447,88.3333 77.6667,88.3333 L82.3333,88.3333 C82.6553,88.3333 82.9167,88.5947 82.9167,88.9167 M82.9167,91.25 C82.9167,91.572 82.6553,91.8333 82.3333,91.8333 L77.6667,91.8333 C77.3447,91.8333 77.0833,91.572 77.0833,91.25 C77.0833,90.928 77.3447,90.6667 77.6667,90.6667 L82.3333,90.6667 C82.6553,90.6667 82.9167,90.928 82.9167,91.25 M89.9167,93.5833 C89.9167,93.9053 89.6559,94.1667 89.3333,94.1667 L77.6667,94.1667 C77.3447,94.1667 77.0833,93.9053 77.0833,93.5833 C77.0833,93.2613 77.3447,93 77.6667,93 L89.3333,93 C89.6559,93 89.9167,93.2613 89.9167,93.5833 M89.9167,95.9167 C89.9167,96.2393 89.6559,96.5 89.3333,96.5 L77.6667,96.5 C77.3447,96.5 77.0833,96.2393 77.0833,95.9167 C77.0833,95.5941 77.3447,95.3333 77.6667,95.3333 L89.3333,95.3333 C89.6559,95.3333 89.9167,95.5941 89.9167,95.9167 M89.9167,98.25 C89.9167,98.5726 89.6559,98.8333 89.3333,98.8333 L77.6667,98.8333 C77.3447,98.8333 77.0833,98.5726 77.0833,98.25 C77.0833,97.9274 77.3447,97.6667 77.6667,97.6667 L89.3333,97.6667 C89.6559,97.6667 89.9167,97.9274 89.9167,98.25 M89.9167,100.5833 C89.9167,100.9059 89.6559,101.1667 89.3333,101.1667 L77.6667,101.1667 C77.3447,101.1667 77.0833,100.9059 77.0833,100.5833 C77.0833,100.2608 77.3447,100 77.6667,100 L89.3333,100 C89.6559,100 89.9167,100.2608 89.9167,100.5833 " fill="#99AAB5" style="stroke:;stroke-width:0.0;stroke-dasharray:;"/><text fill="#000000" font-family="Courier" font-size="14" lengthAdjust="spacing" textLength="101.1445" x="94" y="103.6982">cactus00.png</text><path d="M91.9088,114.5918 L86.6588,109.3418 C86.4482,109.1313 86.1559,109 85.8333,109 C85.1893,109 84.6673,109.5227 84.6667,110.1667 C84.6667,110.4887 84.7973,110.7809 85.0085,110.9921 L82.7574,113.2432 L88.0074,118.4932 L90.2585,116.2421 C90.4697,116.4527 90.7613,116.5833 91.0833,116.5833 C91.7273,116.5833 92.2506,116.0607 92.25,115.4167 C92.25,115.0947 92.1193,114.803 91.9088,114.5918 " fill="#E1E8ED" style="stroke:;stroke-width:0.0;stroke-dasharray:;"/><path d="M85.8333,109 L77.0833,109 C75.7948,109 74.75,110.0448 74.75,111.3333 L74.75,127.6667 C74.75,128.9553 75.7948,130 77.0833,130 L89.9167,130 C91.2053,130 92.25,128.9553 92.25,127.6667 L92.25,115.4167 L87,115.4167 C86.4167,115.4167 85.8333,114.8333 85.8333,114.25 L85.8333,109 " fill="#CCD6DD" style="stroke:;stroke-width:0.0;stroke-dasharray:;"/><path d="M85.8333,109 L84.6667,109 L84.6667,114.25 C84.6667,115.5386 85.7114,116.5833 87,116.5833 L92.25,116.5833 L92.25,115.4167 L87,115.4167 C86.4167,115.4167 85.8333,114.8333 85.8333,114.25 L85.8333,109 M82.9167,113.6667 C82.9167,113.9887 82.6553,114.25 82.3333,114.25 L77.6667,114.25 C77.3447,114.25 77.0833,113.9887 77.0833,113.6667 C77.0833,113.3447 77.3447,113.0833 77.6667,113.0833 L82.3333,113.0833 C82.6553,113.0833 82.9167,113.3447 82.9167,113.6667 M82.9167,116 C82.9167,116.322 82.6553,116.5833 82.3333,116.5833 L77.6667,116.5833 C77.3447,116.5833 77.0833,116.322 77.0833,116 C77.0833,115.678 77.3447,115.4167 77.6667,115.4167 L82.3333,115.4167 C82.6553,115.4167 82.9167,115.678 82.9167,116 M89.9167,118.3333 C89.9167,118.6553 89.6559,118.9167 89.3333,118.9167 L77.6667,118.9167 C77.3447,118.9167 77.0833,118.6553 77.0833,118.3333 C77.0833,118.0113 77.3447,117.75 77.6667,117.75 L89.3333,117.75 C89.6559,117.75 89.9167,118.0113 89.9167,118.3333 M89.9167,120.6667 C89.9167,120.9893 89.6559,121.25 89.3333,121.25 L77.6667,121.25 C77.3447,121.25 77.0833,120.9893 77.0833,120.6667 C77.0833,120.3441 77.3447,120.0833 77.6667,120.0833 L89.3333,120.0833 C89.6559,120.0833 89.9167,120.3441 89.9167,120.6667 M89.9167,123 C89.9167,123.3226 89.6559,123.5833 89.3333,123.5833 L77.6667,123.5833 C77.3447,123.5833 77.0833,123.3226 77.0833,123 C77.0833,122.6774 77.3447,122.4167 77.6667,122.4167 L89.3333,122.4167 C89.6559,122.4167 89.9167,122.6774 89.9167,123 M89.9167,125.3333 C89.9167,125.6559 89.6559,125.9167 89.3333,125.9167 L77.6667,125.9167 C77.3447,125.9167 77.0833,125.6559 77.0833,125.3333 C77.0833,125.0108 77.3447,124.75 77.6667,124.75 L89.3333,124.75 C89.6559,124.75 89.9167,125.0108 89.9167,125.3333 " fill="#99AAB5" style="stroke:;stroke-width:0.0;stroke-dasharray:;"/><text fill="#000000" font-family="Courier" font-size="14" lengthAdjust="spacing" textLength="101.1445" x="94" y="128.4482">cactus01.png</text><path d="M91.9088,139.3418 L86.6588,134.0918 C86.4482,133.8813 86.1559,133.75 85.8333,133.75 C85.1893,133.75 84.6673,134.2727 84.6667,134.9167 C84.6667,135.2387 84.7973,135.5309 85.0085,135.7421 L82.7574,137.9932 L88.0074,143.2432 L90.2585,140.9921 C90.4697,141.2027 90.7613,141.3333 91.0833,141.3333 C91.7273,141.3333 92.2506,140.8107 92.25,140.1667 C92.25,139.8447 92.1193,139.553 91.9088,139.3418 " fill="#E1E8ED" style="stroke:;stroke-width:0.0;stroke-dasharray:;"/><path d="M85.8333,133.75 L77.0833,133.75 C75.7948,133.75 74.75,134.7948 74.75,136.0833 L74.75,152.4167 C74.75,153.7053 75.7948,154.75 77.0833,154.75 L89.9167,154.75 C91.2053,154.75 92.25,153.7053 92.25,152.4167 L92.25,140.1667 L87,140.1667 C86.4167,140.1667 85.8333,139.5833 85.8333,139 L85.8333,133.75 " fill="#CCD6DD" style="stroke:;stroke-width:0.0;stroke-dasharray:;"/><path d="M85.8333,133.75 L84.6667,133.75 L84.6667,139 C84.6667,140.2886 85.7114,141.3333 87,141.3333 L92.25,141.3333 L92.25,140.1667 L87,140.1667 C86.4167,140.1667 85.8333,139.5833 85.8333,139 L85.8333,133.75 M82.9167,138.4167 C82.9167,138.7387 82.6553,139 82.3333,139 L77.6667,139 C77.3447,139 77.0833,138.7387 77.0833,138.4167 C77.0833,138.0947 77.3447,137.8333 77.6667,137.8333 L82.3333,137.8333 C82.6553,137.8333 82.9167,138.0947 82.9167,138.4167 M82.9167,140.75 C82.9167,141.072 82.6553,141.3333 82.3333,141.3333 L77.6667,141.3333 C77.3447,141.3333 77.0833,141.072 77.0833,140.75 C77.0833,140.428 77.3447,140.1667 77.6667,140.1667 L82.3333,140.1667 C82.6553,140.1667 82.9167,140.428 82.9167,140.75 M89.9167,143.0833 C89.9167,143.4053 89.6559,143.6667 89.3333,143.6667 L77.6667,143.6667 C77.3447,143.6667 77.0833,143.4053 77.0833,143.0833 C77.0833,142.7613 77.3447,142.5 77.6667,142.5 L89.3333,142.5 C89.6559,142.5 89.9167,142.7613 89.9167,143.0833 M89.9167,145.4167 C89.9167,145.7393 89.6559,146 89.3333,146 L77.6667,146 C77.3447,146 77.0833,145.7393 77.0833,145.4167 C77.0833,145.0941 77.3447,144.8333 77.6667,144.8333 L89.3333,144.8333 C89.6559,144.8333 89.9167,145.0941 89.9167,145.4167 M89.9167,147.75 C89.9167,148.0726 89.6559,148.3333 89.3333,148.3333 L77.6667,148.3333 C77.3447,148.3333 77.0833,148.0726 77.0833,147.75 C77.0833,147.4274 77.3447,147.1667 77.6667,147.1667 L89.3333,147.1667 C89.6559,147.1667 89.9167,147.4274 89.9167,147.75 M89.9167,150.0833 C89.9167,150.4059 89.6559,150.6667 89.3333,150.6667 L77.6667,150.6667 C77.3447,150.6667 77.0833,150.4059 77.0833,150.0833 C77.0833,149.7608 77.3447,149.5 77.6667,149.5 L89.3333,149.5 C89.6559,149.5 89.9167,149.7608 89.9167,150.0833 " fill="#99AAB5" style="stroke:;stroke-width:0.0;stroke-dasharray:;"/><text fill="#000000" font-family="Courier" font-size="14" lengthAdjust="spacing" textLength="101.1445" x="94" y="153.1982">cactus02.png</text><path d="M91.9088,164.0918 L86.6588,158.8418 C86.4482,158.6313 86.1559,158.5 85.8333,158.5 C85.1893,158.5 84.6673,159.0227 84.6667,159.6667 C84.6667,159.9887 84.7973,160.2809 85.0085,160.4921 L82.7574,162.7432 L88.0074,167.9932 L90.2585,165.7421 C90.4697,165.9527 90.7613,166.0833 91.0833,166.0833 C91.7273,166.0833 92.2506,165.5607 92.25,164.9167 C92.25,164.5947 92.1193,164.303 91.9088,164.0918 " fill="#E1E8ED" style="stroke:;stroke-width:0.0;stroke-dasharray:;"/><path d="M85.8333,158.5 L77.0833,158.5 C75.7948,158.5 74.75,159.5448 74.75,160.8333 L74.75,177.1667 C74.75,178.4553 75.7948,179.5 77.0833,179.5 L89.9167,179.5 C91.2053,179.5 92.25,178.4553 92.25,177.1667 L92.25,164.9167 L87,164.9167 C86.4167,164.9167 85.8333,164.3333 85.8333,163.75 L85.8333,158.5 " fill="#CCD6DD" style="stroke:;stroke-width:0.0;stroke-dasharray:;"/><path d="M85.8333,158.5 L84.6667,158.5 L84.6667,163.75 C84.6667,165.0386 85.7114,166.0833 87,166.0833 L92.25,166.0833 L92.25,164.9167 L87,164.9167 C86.4167,164.9167 85.8333,164.3333 85.8333,163.75 L85.8333,158.5 M82.9167,163.1667 C82.9167,163.4887 82.6553,163.75 82.3333,163.75 L77.6667,163.75 C77.3447,163.75 77.0833,163.4887 77.0833,163.1667 C77.0833,162.8447 77.3447,162.5833 77.6667,162.5833 L82.3333,162.5833 C82.6553,162.5833 82.9167,162.8447 82.9167,163.1667 M82.9167,165.5 C82.9167,165.822 82.6553,166.0833 82.3333,166.0833 L77.6667,166.0833 C77.3447,166.0833 77.0833,165.822 77.0833,165.5 C77.0833,165.178 77.3447,164.9167 77.6667,164.9167 L82.3333,164.9167 C82.6553,164.9167 82.9167,165.178 82.9167,165.5 M89.9167,167.8333 C89.9167,168.1553 89.6559,168.4167 89.3333,168.4167 L77.6667,168.4167 C77.3447,168.4167 77.0833,168.1553 77.0833,167.8333 C77.0833,167.5113 77.3447,167.25 77.6667,167.25 L89.3333,167.25 C89.6559,167.25 89.9167,167.5113 89.9167,167.8333 M89.9167,170.1667 C89.9167,170.4893 89.6559,170.75 89.3333,170.75 L77.6667,170.75 C77.3447,170.75 77.0833,170.4893 77.0833,170.1667 C77.0833,169.8441 77.3447,169.5833 77.6667,169.5833 L89.3333,169.5833 C89.6559,169.5833 89.9167,169.8441 89.9167,170.1667 M89.9167,172.5 C89.9167,172.8226 89.6559,173.0833 89.3333,173.0833 L77.6667,173.0833 C77.3447,173.0833 77.0833,172.8226 77.0833,172.5 C77.0833,172.1774 77.3447,171.9167 77.6667,171.9167 L89.3333,171.9167 C89.6559,171.9167 89.9167,172.1774 89.9167,172.5 M89.9167,174.8333 C89.9167,175.1559 89.6559,175.4167 89.3333,175.4167 L77.6667,175.4167 C77.3447,175.4167 77.0833,175.1559 77.0833,174.8333 C77.0833,174.5108 77.3447,174.25 77.6667,174.25 L89.3333,174.25 C89.6559,174.25 89.9167,174.5108 89.9167,174.8333 " fill="#99AAB5" style="stroke:;stroke-width:0.0;stroke-dasharray:;"/><text fill="#000000" font-family="Courier" font-size="14" lengthAdjust="spacing" textLength="101.1445" x="94" y="177.9482">cactus03.png</text><path d="M91.9088,188.8418 L86.6588,183.5918 C86.4482,183.3813 86.1559,183.25 85.8333,183.25 C85.1893,183.25 84.6673,183.7727 84.6667,184.4167 C84.6667,184.7387 84.7973,185.0309 85.0085,185.2421 L82.7574,187.4932 L88.0074,192.7432 L90.2585,190.4921 C90.4697,190.7027 90.7613,190.8333 91.0833,190.8333 C91.7273,190.8333 92.2506,190.3107 92.25,189.6667 C92.25,189.3447 92.1193,189.053 91.9088,188.8418 " fill="#E1E8ED" style="stroke:;stroke-width:0.0;stroke-dasharray:;"/><path d="M85.8333,183.25 L77.0833,183.25 C75.7948,183.25 74.75,184.2948 74.75,185.5833 L74.75,201.9167 C74.75,203.2053 75.7948,204.25 77.0833,204.25 L89.9167,204.25 C91.2053,204.25 92.25,203.2053 92.25,201.9167 L92.25,189.6667 L87,189.6667 C86.4167,189.6667 85.8333,189.0833 85.8333,188.5 L85.8333,183.25 " fill="#CCD6DD" style="stroke:;stroke-width:0.0;stroke-dasharray:;"/><path d="M85.8333,183.25 L84.6667,183.25 L84.6667,188.5 C84.6667,189.7886 85.7114,190.8333 87,190.8333 L92.25,190.8333 L92.25,189.6667 L87,189.6667 C86.4167,189.6667 85.8333,189.0833 85.8333,188.5 L85.8333,183.25 M82.9167,187.9167 C82.9167,188.2387 82.6553,188.5 82.3333,188.5 L77.6667,188.5 C77.3447,188.5 77.0833,188.2387 77.0833,187.9167 C77.0833,187.5947 77.3447,187.3333 77.6667,187.3333 L82.3333,187.3333 C82.6553,187.3333 82.9167,187.5947 82.9167,187.9167 M82.9167,190.25 C82.9167,190.572 82.6553,190.8333 82.3333,190.8333 L77.6667,190.8333 C77.3447,190.8333 77.0833,190.572 77.0833,190.25 C77.0833,189.928 77.3447,189.6667 77.6667,189.6667 L82.3333,189.6667 C82.6553,189.6667 82.9167,189.928 82.9167,190.25 M89.9167,192.5833 C89.9167,192.9053 89.6559,193.1667 89.3333,193.1667 L77.6667,193.1667 C77.3447,193.1667 77.0833,192.9053 77.0833,192.5833 C77.0833,192.2613 77.3447,192 77.6667,192 L89.3333,192 C89.6559,192 89.9167,192.2613 89.9167,192.5833 M89.9167,194.9167 C89.9167,195.2393 89.6559,195.5 89.3333,195.5 L77.6667,195.5 C77.3447,195.5 77.0833,195.2393 77.0833,194.9167 C77.0833,194.5941 77.3447,194.3333 77.6667,194.3333 L89.3333,194.3333 C89.6559,194.3333 89.9167,194.5941 89.9167,194.9167 M89.9167,197.25 C89.9167,197.5726 89.6559,197.8333 89.3333,197.8333 L77.6667,197.8333 C77.3447,197.8333 77.0833,197.5726 77.0833,197.25 C77.0833,196.9274 77.3447,196.6667 77.6667,196.6667 L89.3333,196.6667 C89.6559,196.6667 89.9167,196.9274 89.9167,197.25 M89.9167,199.5833 C89.9167,199.9059 89.6559,200.1667 89.3333,200.1667 L77.6667,200.1667 C77.3447,200.1667 77.0833,199.9059 77.0833,199.5833 C77.0833,199.2608 77.3447,199 77.6667,199 L89.3333,199 C89.6559,199 89.9167,199.2608 89.9167,199.5833 " fill="#99AAB5" style="stroke:;stroke-width:0.0;stroke-dasharray:;"/><text fill="#000000" font-family="Courier" font-size="14" lengthAdjust="spacing" textLength="101.1445" x="94" y="202.6982">cactus04.png</text><path d="M91.9088,213.5918 L86.6588,208.3418 C86.4482,208.1313 86.1559,208 85.8333,208 C85.1893,208 84.6673,208.5227 84.6667,209.1667 C84.6667,209.4887 84.7973,209.7809 85.0085,209.9921 L82.7574,212.2432 L88.0074,217.4932 L90.2585,215.2421 C90.4697,215.4527 90.7613,215.5833 91.0833,215.5833 C91.7273,215.5833 92.2506,215.0607 92.25,214.4167 C92.25,214.0947 92.1193,213.803 91.9088,213.5918 " fill="#E1E8ED" style="stroke:;stroke-width:0.0;stroke-dasharray:;"/><path d="M85.8333,208 L77.0833,208 C75.7948,208 74.75,209.0448 74.75,210.3333 L74.75,226.6667 C74.75,227.9553 75.7948,229 77.0833,229 L89.9167,229 C91.2053,229 92.25,227.9553 92.25,226.6667 L92.25,214.4167 L87,214.4167 C86.4167,214.4167 85.8333,213.8333 85.8333,213.25 L85.8333,208 " fill="#CCD6DD" style="stroke:;stroke-width:0.0;stroke-dasharray:;"/><path d="M85.8333,208 L84.6667,208 L84.6667,213.25 C84.6667,214.5386 85.7114,215.5833 87,215.5833 L92.25,215.5833 L92.25,214.4167 L87,214.4167 C86.4167,214.4167 85.8333,213.8333 85.8333,213.25 L85.8333,208 M82.9167,212.6667 C82.9167,212.9887 82.6553,213.25 82.3333,213.25 L77.6667,213.25 C77.3447,213.25 77.0833,212.9887 77.0833,212.6667 C77.0833,212.3447 77.3447,212.0833 77.6667,212.0833 L82.3333,212.0833 C82.6553,212.0833 82.9167,212.3447 82.9167,212.6667 M82.9167,215 C82.9167,215.322 82.6553,215.5833 82.3333,215.5833 L77.6667,215.5833 C77.3447,215.5833 77.0833,215.322 77.0833,215 C77.0833,214.678 77.3447,214.4167 77.6667,214.4167 L82.3333,214.4167 C82.6553,214.4167 82.9167,214.678 82.9167,215 M89.9167,217.3333 C89.9167,217.6553 89.6559,217.9167 89.3333,217.9167 L77.6667,217.9167 C77.3447,217.9167 77.0833,217.6553 77.0833,217.3333 C77.0833,217.0113 77.3447,216.75 77.6667,216.75 L89.3333,216.75 C89.6559,216.75 89.9167,217.0113 89.9167,217.3333 M89.9167,219.6667 C89.9167,219.9893 89.6559,220.25 89.3333,220.25 L77.6667,220.25 C77.3447,220.25 77.0833,219.9893 77.0833,219.6667 C77.0833,219.3441 77.3447,219.0833 77.6667,219.0833 L89.3333,219.0833 C89.6559,219.0833 89.9167,219.3441 89.9167,219.6667 M89.9167,222 C89.9167,222.3226 89.6559,222.5833 89.3333,222.5833 L77.6667,222.5833 C77.3447,222.5833 77.0833,222.3226 77.0833,222 C77.0833,221.6774 77.3447,221.4167 77.6667,221.4167 L89.3333,221.4167 C89.6559,221.4167 89.9167,221.6774 89.9167,222 M89.9167,224.3333 C89.9167,224.6559 89.6559,224.9167 89.3333,224.9167 L77.6667,224.9167 C77.3447,224.9167 77.0833,224.6559 77.0833,224.3333 C77.0833,224.0108 77.3447,223.75 77.6667,223.75 L89.3333,223.75 C89.6559,223.75 89.9167,224.0108 89.9167,224.3333 " fill="#99AAB5" style="stroke:;stroke-width:0.0;stroke-dasharray:;"/><text fill="#000000" font-family="Courier" font-size="14" lengthAdjust="spacing" textLength="101.1445" x="94" y="227.4482">cactus05.png</text><path d="M91.9088,238.3418 L86.6588,233.0918 C86.4482,232.8813 86.1559,232.75 85.8333,232.75 C85.1893,232.75 84.6673,233.2727 84.6667,233.9167 C84.6667,234.2387 84.7973,234.5309 85.0085,234.7421 L82.7574,236.9932 L88.0074,242.2432 L90.2585,239.9921 C90.4697,240.2027 90.7613,240.3333 91.0833,240.3333 C91.7273,240.3333 92.2506,239.8107 92.25,239.1667 C92.25,238.8447 92.1193,238.553 91.9088,238.3418 " fill="#E1E8ED" style="stroke:;stroke-width:0.0;stroke-dasharray:;"/><path d="M85.8333,232.75 L77.0833,232.75 C75.7948,232.75 74.75,233.7948 74.75,235.0833 L74.75,251.4167 C74.75,252.7053 75.7948,253.75 77.0833,253.75 L89.9167,253.75 C91.2053,253.75 92.25,252.7053 92.25,251.4167 L92.25,239.1667 L87,239.1667 C86.4167,239.1667 85.8333,238.5833 85.8333,238 L85.8333,232.75 " fill="#CCD6DD" style="stroke:;stroke-width:0.0;stroke-dasharray:;"/><path d="M85.8333,232.75 L84.6667,232.75 L84.6667,238 C84.6667,239.2886 85.7114,240.3333 87,240.3333 L92.25,240.3333 L92.25,239.1667 L87,239.1667 C86.4167,239.1667 85.8333,238.5833 85.8333,238 L85.8333,232.75 M82.9167,237.4167 C82.9167,237.7387 82.6553,238 82.3333,238 L77.6667,238 C77.3447,238 77.0833,237.7387 77.0833,237.4167 C77.0833,237.0947 77.3447,236.8333 77.6667,236.8333 L82.3333,236.8333 C82.6553,236.8333 82.9167,237.0947 82.9167,237.4167 M82.9167,239.75 C82.9167,240.072 82.6553,240.3333 82.3333,240.3333 L77.6667,240.3333 C77.3447,240.3333 77.0833,240.072 77.0833,239.75 C77.0833,239.428 77.3447,239.1667 77.6667,239.1667 L82.3333,239.1667 C82.6553,239.1667 82.9167,239.428 82.9167,239.75 M89.9167,242.0833 C89.9167,242.4053 89.6559,242.6667 89.3333,242.6667 L77.6667,242.6667 C77.3447,242.6667 77.0833,242.4053 77.0833,242.0833 C77.0833,241.7613 77.3447,241.5 77.6667,241.5 L89.3333,241.5 C89.6559,241.5 89.9167,241.7613 89.9167,242.0833 M89.9167,244.4167 C89.9167,244.7393 89.6559,245 89.3333,245 L77.6667,245 C77.3447,245 77.0833,244.7393 77.0833,244.4167 C77.0833,244.0941 77.3447,243.8333 77.6667,243.8333 L89.3333,243.8333 C89.6559,243.8333 89.9167,244.0941 89.9167,244.4167 M89.9167,246.75 C89.9167,247.0726 89.6559,247.3333 89.3333,247.3333 L77.6667,247.3333 C77.3447,247.3333 77.0833,247.0726 77.0833,246.75 C77.0833,246.4274 77.3447,246.1667 77.6667,246.1667 L89.3333,246.1667 C89.6559,246.1667 89.9167,246.4274 89.9167,246.75 M89.9167,249.0833 C89.9167,249.4059 89.6559,249.6667 89.3333,249.6667 L77.6667,249.6667 C77.3447,249.6667 77.0833,249.4059 77.0833,249.0833 C77.0833,248.7608 77.3447,248.5 77.6667,248.5 L89.3333,248.5 C89.6559,248.5 89.9167,248.7608 89.9167,249.0833 " fill="#99AAB5" style="stroke:;stroke-width:0.0;stroke-dasharray:;"/><text fill="#000000" font-family="Courier" font-size="14" lengthAdjust="spacing" textLength="92.7158" x="94" y="252.1982">heart00.png</text><path d="M91.9088,263.0918 L86.6588,257.8418 C86.4482,257.6313 86.1559,257.5 85.8333,257.5 C85.1893,257.5 84.6673,258.0227 84.6667,258.6667 C84.6667,258.9887 84.7973,259.2809 85.0085,259.4921 L82.7574,261.7432 L88.0074,266.9932 L90.2585,264.7421 C90.4697,264.9527 90.7613,265.0833 91.0833,265.0833 C91.7273,265.0833 92.2506,264.5607 92.25,263.9167 C92.25,263.5947 92.1193,263.303 91.9088,263.0918 " fill="#E1E8ED" style="stroke:;stroke-width:0.0;stroke-dasharray:;"/><path d="M85.8333,257.5 L77.0833,257.5 C75.7948,257.5 74.75,258.5448 74.75,259.8333 L74.75,276.1667 C74.75,277.4553 75.7948,278.5 77.0833,278.5 L89.9167,278.5 C91.2053,278.5 92.25,277.4553 92.25,276.1667 L92.25,263.9167 L87,263.9167 C86.4167,263.9167 85.8333,263.3333 85.8333,262.75 L85.8333,257.5 " fill="#CCD6DD" style="stroke:;stroke-width:0.0;stroke-dasharray:;"/><path d="M85.8333,257.5 L84.6667,257.5 L84.6667,262.75 C84.6667,264.0386 85.7114,265.0833 87,265.0833 L92.25,265.0833 L92.25,263.9167 L87,263.9167 C86.4167,263.9167 85.8333,263.3333 85.8333,262.75 L85.8333,257.5 M82.9167,262.1667 C82.9167,262.4887 82.6553,262.75 82.3333,262.75 L77.6667,262.75 C77.3447,262.75 77.0833,262.4887 77.0833,262.1667 C77.0833,261.8447 77.3447,261.5833 77.6667,261.5833 L82.3333,261.5833 C82.6553,261.5833 82.9167,261.8447 82.9167,262.1667 M82.9167,264.5 C82.9167,264.822 82.6553,265.0833 82.3333,265.0833 L77.6667,265.0833 C77.3447,265.0833 77.0833,264.822 77.0833,264.5 C77.0833,264.178 77.3447,263.9167 77.6667,263.9167 L82.3333,263.9167 C82.6553,263.9167 82.9167,264.178 82.9167,264.5 M89.9167,266.8333 C89.9167,267.1553 89.6559,267.4167 89.3333,267.4167 L77.6667,267.4167 C77.3447,267.4167 77.0833,267.1553 77.0833,266.8333 C77.0833,266.5113 77.3447,266.25 77.6667,266.25 L89.3333,266.25 C89.6559,266.25 89.9167,266.5113 89.9167,266.8333 M89.9167,269.1667 C89.9167,269.4893 89.6559,269.75 89.3333,269.75 L77.6667,269.75 C77.3447,269.75 77.0833,269.4893 77.0833,269.1667 C77.0833,268.8441 77.3447,268.5833 77.6667,268.5833 L89.3333,268.5833 C89.6559,268.5833 89.9167,268.8441 89.9167,269.1667 M89.9167,271.5 C89.9167,271.8226 89.6559,272.0833 89.3333,272.0833 L77.6667,272.0833 C77.3447,272.0833 77.0833,271.8226 77.0833,271.5 C77.0833,271.1774 77.3447,270.9167 77.6667,270.9167 L89.3333,270.9167 C89.6559,270.9167 89.9167,271.1774 89.9167,271.5 M89.9167,273.8333 C89.9167,274.1559 89.6559,274.4167 89.3333,274.4167 L77.6667,274.4167 C77.3447,274.4167 77.0833,274.1559 77.0833,273.8333 C77.0833,273.5108 77.3447,273.25 77.6667,273.25 L89.3333,273.25 C89.6559,273.25 89.9167,273.5108 89.9167,273.8333 " fill="#99AAB5" style="stroke:;stroke-width:0.0;stroke-dasharray:;"/><text fill="#000000" font-family="Courier" font-size="14" lengthAdjust="spacing" textLength="92.7158" x="94" y="276.9482">heart01.png</text><path d="M91.9088,287.8418 L86.6588,282.5918 C86.4482,282.3813 86.1559,282.25 85.8333,282.25 C85.1893,282.25 84.6673,282.7727 84.6667,283.4167 C84.6667,283.7387 84.7973,284.0309 85.0085,284.2421 L82.7574,286.4932 L88.0074,291.7432 L90.2585,289.4921 C90.4697,289.7027 90.7613,289.8333 91.0833,289.8333 C91.7273,289.8333 92.2506,289.3107 92.25,288.6667 C92.25,288.3447 92.1193,288.053 91.9088,287.8418 " fill="#E1E8ED" style="stroke:;stroke-width:0.0;stroke-dasharray:;"/><path d="M85.8333,282.25 L77.0833,282.25 C75.7948,282.25 74.75,283.2948 74.75,284.5833 L74.75,300.9167 C74.75,302.2053 75.7948,303.25 77.0833,303.25 L89.9167,303.25 C91.2053,303.25 92.25,302.2053 92.25,300.9167 L92.25,288.6667 L87,288.6667 C86.4167,288.6667 85.8333,288.0833 85.8333,287.5 L85.8333,282.25 " fill="#CCD6DD" style="stroke:;stroke-width:0.0;stroke-dasharray:;"/><path d="M85.8333,282.25 L84.6667,282.25 L84.6667,287.5 C84.6667,288.7886 85.7114,289.8333 87,289.8333 L92.25,289.8333 L92.25,288.6667 L87,288.6667 C86.4167,288.6667 85.8333,288.0833 85.8333,287.5 L85.8333,282.25 M82.9167,286.9167 C82.9167,287.2387 82.6553,287.5 82.3333,287.5 L77.6667,287.5 C77.3447,287.5 77.0833,287.2387 77.0833,286.9167 C77.0833,286.5947 77.3447,286.3333 77.6667,286.3333 L82.3333,286.3333 C82.6553,286.3333 82.9167,286.5947 82.9167,286.9167 M82.9167,289.25 C82.9167,289.572 82.6553,289.8333 82.3333,289.8333 L77.6667,289.8333 C77.3447,289.8333 77.0833,289.572 77.0833,289.25 C77.0833,288.928 77.3447,288.6667 77.6667,288.6667 L82.3333,288.6667 C82.6553,288.6667 82.9167,288.928 82.9167,289.25 M89.9167,291.5833 C89.9167,291.9053 89.6559,292.1667 89.3333,292.1667 L77.6667,292.1667 C77.3447,292.1667 77.0833,291.9053 77.0833,291.5833 C77.0833,291.2613 77.3447,291 77.6667,291 L89.3333,291 C89.6559,291 89.9167,291.2613 89.9167,291.5833 M89.9167,293.9167 C89.9167,294.2393 89.6559,294.5 89.3333,294.5 L77.6667,294.5 C77.3447,294.5 77.0833,294.2393 77.0833,293.9167 C77.0833,293.5941 77.3447,293.3333 77.6667,293.3333 L89.3333,293.3333 C89.6559,293.3333 89.9167,293.5941 89.9167,293.9167 M89.9167,296.25 C89.9167,296.5726 89.6559,296.8333 89.3333,296.8333 L77.6667,296.8333 C77.3447,296.8333 77.0833,296.5726 77.0833,296.25 C77.0833,295.9274 77.3447,295.6667 77.6667,295.6667 L89.3333,295.6667 C89.6559,295.6667 89.9167,295.9274 89.9167,296.25 M89.9167,298.5833 C89.9167,298.9059 89.6559,299.1667 89.3333,299.1667 L77.6667,299.1667 C77.3447,299.1667 77.0833,298.9059 77.0833,298.5833 C77.0833,298.2608 77.3447,298 77.6667,298 L89.3333,298 C89.6559,298 89.9167,298.2608 89.9167,298.5833 " fill="#99AAB5" style="stroke:;stroke-width:0.0;stroke-dasharray:;"/><text fill="#000000" font-family="Courier" font-size="14" lengthAdjust="spacing" textLength="92.7158" x="94" y="301.6982">heart02.png</text><path d="M91.9088,312.5918 L86.6588,307.3418 C86.4482,307.1313 86.1559,307 85.8333,307 C85.1893,307 84.6673,307.5227 84.6667,308.1667 C84.6667,308.4887 84.7973,308.7809 85.0085,308.9921 L82.7574,311.2432 L88.0074,316.4932 L90.2585,314.2421 C90.4697,314.4527 90.7613,314.5833 91.0833,314.5833 C91.7273,314.5833 92.2506,314.0607 92.25,313.4167 C92.25,313.0947 92.1193,312.803 91.9088,312.5918 " fill="#E1E8ED" style="stroke:;stroke-width:0.0;stroke-dasharray:;"/><path d="M85.8333,307 L77.0833,307 C75.7948,307 74.75,308.0448 74.75,309.3333 L74.75,325.6667 C74.75,326.9553 75.7948,328 77.0833,328 L89.9167,328 C91.2053,328 92.25,326.9553 92.25,325.6667 L92.25,313.4167 L87,313.4167 C86.4167,313.4167 85.8333,312.8333 85.8333,312.25 L85.8333,307 " fill="#CCD6DD" style="stroke:;stroke-width:0.0;stroke-dasharray:;"/><path d="M85.8333,307 L84.6667,307 L84.6667,312.25 C84.6667,313.5386 85.7114,314.5833 87,314.5833 L92.25,314.5833 L92.25,313.4167 L87,313.4167 C86.4167,313.4167 85.8333,312.8333 85.8333,312.25 L85.8333,307 M82.9167,311.6667 C82.9167,311.9887 82.6553,312.25 82.3333,312.25 L77.6667,312.25 C77.3447,312.25 77.0833,311.9887 77.0833,311.6667 C77.0833,311.3447 77.3447,311.0833 77.6667,311.0833 L82.3333,311.0833 C82.6553,311.0833 82.9167,311.3447 82.9167,311.6667 M82.9167,314 C82.9167,314.322 82.6553,314.5833 82.3333,314.5833 L77.6667,314.5833 C77.3447,314.5833 77.0833,314.322 77.0833,314 C77.0833,313.678 77.3447,313.4167 77.6667,313.4167 L82.3333,313.4167 C82.6553,313.4167 82.9167,313.678 82.9167,314 M89.9167,316.3333 C89.9167,316.6553 89.6559,316.9167 89.3333,316.9167 L77.6667,316.9167 C77.3447,316.9167 77.0833,316.6553 77.0833,316.3333 C77.0833,316.0113 77.3447,315.75 77.6667,315.75 L89.3333,315.75 C89.6559,315.75 89.9167,316.0113 89.9167,316.3333 M89.9167,318.6667 C89.9167,318.9893 89.6559,319.25 89.3333,319.25 L77.6667,319.25 C77.3447,319.25 77.0833,318.9893 77.0833,318.6667 C77.0833,318.3441 77.3447,318.0833 77.6667,318.0833 L89.3333,318.0833 C89.6559,318.0833 89.9167,318.3441 89.9167,318.6667 M89.9167,321 C89.9167,321.3226 89.6559,321.5833 89.3333,321.5833 L77.6667,321.5833 C77.3447,321.5833 77.0833,321.3226 77.0833,321 C77.0833,320.6774 77.3447,320.4167 77.6667,320.4167 L89.3333,320.4167 C89.6559,320.4167 89.9167,320.6774 89.9167,321 M89.9167,323.3333 C89.9167,323.6559 89.6559,323.9167 89.3333,323.9167 L77.6667,323.9167 C77.3447,323.9167 77.0833,323.6559 77.0833,323.3333 C77.0833,323.0108 77.3447,322.75 77.6667,322.75 L89.3333,322.75 C89.6559,322.75 89.9167,323.0108 89.9167,323.3333 " fill="#99AAB5" style="stroke:;stroke-width:0.0;stroke-dasharray:;"/><text fill="#000000" font-family="Courier" font-size="14" lengthAdjust="spacing" textLength="92.7158" x="94" y="326.4482">heart03.png</text><path d="M91.9088,337.3418 L86.6588,332.0918 C86.4482,331.8813 86.1559,331.75 85.8333,331.75 C85.1893,331.75 84.6673,332.2727 84.6667,332.9167 C84.6667,333.2387 84.7973,333.5309 85.0085,333.7421 L82.7574,335.9932 L88.0074,341.2432 L90.2585,338.9921 C90.4697,339.2027 90.7613,339.3333 91.0833,339.3333 C91.7273,339.3333 92.2506,338.8107 92.25,338.1667 C92.25,337.8447 92.1193,337.553 91.9088,337.3418 " fill="#E1E8ED" style="stroke:;stroke-width:0.0;stroke-dasharray:;"/><path d="M85.8333,331.75 L77.0833,331.75 C75.7948,331.75 74.75,332.7948 74.75,334.0833 L74.75,350.4167 C74.75,351.7053 75.7948,352.75 77.0833,352.75 L89.9167,352.75 C91.2053,352.75 92.25,351.7053 92.25,350.4167 L92.25,338.1667 L87,338.1667 C86.4167,338.1667 85.8333,337.5833 85.8333,337 L85.8333,331.75 " fill="#CCD6DD" style="stroke:;stroke-width:0.0;stroke-dasharray:;"/><path d="M85.8333,331.75 L84.6667,331.75 L84.6667,337 C84.6667,338.2886 85.7114,339.3333 87,339.3333 L92.25,339.3333 L92.25,338.1667 L87,338.1667 C86.4167,338.1667 85.8333,337.5833 85.8333,337 L85.8333,331.75 M82.9167,336.4167 C82.9167,336.7387 82.6553,337 82.3333,337 L77.6667,337 C77.3447,337 77.0833,336.7387 77.0833,336.4167 C77.0833,336.0947 77.3447,335.8333 77.6667,335.8333 L82.3333,335.8333 C82.6553,335.8333 82.9167,336.0947 82.9167,336.4167 M82.9167,338.75 C82.9167,339.072 82.6553,339.3333 82.3333,339.3333 L77.6667,339.3333 C77.3447,339.3333 77.0833,339.072 77.0833,338.75 C77.0833,338.428 77.3447,338.1667 77.6667,338.1667 L82.3333,338.1667 C82.6553,338.1667 82.9167,338.428 82.9167,338.75 M89.9167,341.0833 C89.9167,341.4053 89.6559,341.6667 89.3333,341.6667 L77.6667,341.6667 C77.3447,341.6667 77.0833,341.4053 77.0833,341.0833 C77.0833,340.7613 77.3447,340.5 77.6667,340.5 L89.3333,340.5 C89.6559,340.5 89.9167,340.7613 89.9167,341.0833 M89.9167,343.4167 C89.9167,343.7393 89.6559,344 89.3333,344 L77.6667,344 C77.3447,344 77.0833,343.7393 77.0833,343.4167 C77.0833,343.0941 77.3447,342.8333 77.6667,342.8333 L89.3333,342.8333 C89.6559,342.8333 89.9167,343.0941 89.9167,343.4167 M89.9167,345.75 C89.9167,346.0726 89.6559,346.3333 89.3333,346.3333 L77.6667,346.3333 C77.3447,346.3333 77.0833,346.0726 77.0833,345.75 C77.0833,345.4274 77.3447,345.1667 77.6667,345.1667 L89.3333,345.1667 C89.6559,345.1667 89.9167,345.4274 89.9167,345.75 M89.9167,348.0833 C89.9167,348.4059 89.6559,348.6667 89.3333,348.6667 L77.6667,348.6667 C77.3447,348.6667 77.0833,348.4059 77.0833,348.0833 C77.0833,347.7608 77.3447,347.5 77.6667,347.5 L89.3333,347.5 C89.6559,347.5 89.9167,347.7608 89.9167,348.0833 " fill="#99AAB5" style="stroke:;stroke-width:0.0;stroke-dasharray:;"/><text fill="#000000" font-family="Courier" font-size="14" lengthAdjust="spacing" textLength="92.7158" x="94" y="351.1982">heart04.png</text><path d="M91.9088,362.0918 L86.6588,356.8418 C86.4482,356.6313 86.1559,356.5 85.8333,356.5 C85.1893,356.5 84.6673,357.0227 84.6667,357.6667 C84.6667,357.9887 84.7973,358.2809 85.0085,358.4921 L82.7574,360.7432 L88.0074,365.9932 L90.2585,363.7421 C90.4697,363.9527 90.7613,364.0833 91.0833,364.0833 C91.7273,364.0833 92.2506,363.5607 92.25,362.9167 C92.25,362.5947 92.1193,362.303 91.9088,362.0918 " fill="#E1E8ED" style="stroke:;stroke-width:0.0;stroke-dasharray:;"/><path d="M85.8333,356.5 L77.0833,356.5 C75.7948,356.5 74.75,357.5448 74.75,358.8333 L74.75,375.1667 C74.75,376.4553 75.7948,377.5 77.0833,377.5 L89.9167,377.5 C91.2053,377.5 92.25,376.4553 92.25,375.1667 L92.25,362.9167 L87,362.9167 C86.4167,362.9167 85.8333,362.3333 85.8333,361.75 L85.8333,356.5 " fill="#CCD6DD" style="stroke:;stroke-width:0.0;stroke-dasharray:;"/><path d="M85.8333,356.5 L84.6667,356.5 L84.6667,361.75 C84.6667,363.0386 85.7114,364.0833 87,364.0833 L92.25,364.0833 L92.25,362.9167 L87,362.9167 C86.4167,362.9167 85.8333,362.3333 85.8333,361.75 L85.8333,356.5 M82.9167,361.1667 C82.9167,361.4887 82.6553,361.75 82.3333,361.75 L77.6667,361.75 C77.3447,361.75 77.0833,361.4887 77.0833,361.1667 C77.0833,360.8447 77.3447,360.5833 77.6667,360.5833 L82.3333,360.5833 C82.6553,360.5833 82.9167,360.8447 82.9167,361.1667 M82.9167,363.5 C82.9167,363.822 82.6553,364.0833 82.3333,364.0833 L77.6667,364.0833 C77.3447,364.0833 77.0833,363.822 77.0833,363.5 C77.0833,363.178 77.3447,362.9167 77.6667,362.9167 L82.3333,362.9167 C82.6553,362.9167 82.9167,363.178 82.9167,363.5 M89.9167,365.8333 C89.9167,366.1553 89.6559,366.4167 89.3333,366.4167 L77.6667,366.4167 C77.3447,366.4167 77.0833,366.1553 77.0833,365.8333 C77.0833,365.5113 77.3447,365.25 77.6667,365.25 L89.3333,365.25 C89.6559,365.25 89.9167,365.5113 89.9167,365.8333 M89.9167,368.1667 C89.9167,368.4893 89.6559,368.75 89.3333,368.75 L77.6667,368.75 C77.3447,368.75 77.0833,368.4893 77.0833,368.1667 C77.0833,367.8441 77.3447,367.5833 77.6667,367.5833 L89.3333,367.5833 C89.6559,367.5833 89.9167,367.8441 89.9167,368.1667 M89.9167,370.5 C89.9167,370.8226 89.6559,371.0833 89.3333,371.0833 L77.6667,371.0833 C77.3447,371.0833 77.0833,370.8226 77.0833,370.5 C77.0833,370.1774 77.3447,369.9167 77.6667,369.9167 L89.3333,369.9167 C89.6559,369.9167 89.9167,370.1774 89.9167,370.5 M89.9167,372.8333 C89.9167,373.1559 89.6559,373.4167 89.3333,373.4167 L77.6667,373.4167 C77.3447,373.4167 77.0833,373.1559 77.0833,372.8333 C77.0833,372.5108 77.3447,372.25 77.6667,372.25 L89.3333,372.25 C89.6559,372.25 89.9167,372.5108 89.9167,372.8333 " fill="#99AAB5" style="stroke:;stroke-width:0.0;stroke-dasharray:;"/><text fill="#000000" font-family="Courier" font-size="14" lengthAdjust="spacing" textLength="92.7158" x="94" y="375.9482">heart05.png</text><path d="M91.9088,386.8418 L86.6588,381.5918 C86.4482,381.3813 86.1559,381.25 85.8333,381.25 C85.1893,381.25 84.6673,381.7727 84.6667,382.4167 C84.6667,382.7387 84.7973,383.0309 85.0085,383.2421 L82.7574,385.4932 L88.0074,390.7432 L90.2585,388.4921 C90.4697,388.7027 90.7613,388.8333 91.0833,388.8333 C91.7273,388.8333 92.2506,388.3107 92.25,387.6667 C92.25,387.3447 92.1193,387.053 91.9088,386.8418 " fill="#E1E8ED" style="stroke:;stroke-width:0.0;stroke-dasharray:;"/><path d="M85.8333,381.25 L77.0833,381.25 C75.7948,381.25 74.75,382.2948 74.75,383.5833 L74.75,399.9167 C74.75,401.2053 75.7948,402.25 77.0833,402.25 L89.9167,402.25 C91.2053,402.25 92.25,401.2053 92.25,399.9167 L92.25,387.6667 L87,387.6667 C86.4167,387.6667 85.8333,387.0833 85.8333,386.5 L85.8333,381.25 " fill="#CCD6DD" style="stroke:;stroke-width:0.0;stroke-dasharray:;"/><path d="M85.8333,381.25 L84.6667,381.25 L84.6667,386.5 C84.6667,387.7886 85.7114,388.8333 87,388.8333 L92.25,388.8333 L92.25,387.6667 L87,387.6667 C86.4167,387.6667 85.8333,387.0833 85.8333,386.5 L85.8333,381.25 M82.9167,385.9167 C82.9167,386.2387 82.6553,386.5 82.3333,386.5 L77.6667,386.5 C77.3447,386.5 77.0833,386.2387 77.0833,385.9167 C77.0833,385.5947 77.3447,385.3333 77.6667,385.3333 L82.3333,385.3333 C82.6553,385.3333 82.9167,385.5947 82.9167,385.9167 M82.9167,388.25 C82.9167,388.572 82.6553,388.8333 82.3333,388.8333 L77.6667,388.8333 C77.3447,388.8333 77.0833,388.572 77.0833,388.25 C77.0833,387.928 77.3447,387.6667 77.6667,387.6667 L82.3333,387.6667 C82.6553,387.6667 82.9167,387.928 82.9167,388.25 M89.9167,390.5833 C89.9167,390.9053 89.6559,391.1667 89.3333,391.1667 L77.6667,391.1667 C77.3447,391.1667 77.0833,390.9053 77.0833,390.5833 C77.0833,390.2613 77.3447,390 77.6667,390 L89.3333,390 C89.6559,390 89.9167,390.2613 89.9167,390.5833 M89.9167,392.9167 C89.9167,393.2393 89.6559,393.5 89.3333,393.5 L77.6667,393.5 C77.3447,393.5 77.0833,393.2393 77.0833,392.9167 C77.0833,392.5941 77.3447,392.3333 77.6667,392.3333 L89.3333,392.3333 C89.6559,392.3333 89.9167,392.5941 89.9167,392.9167 M89.9167,395.25 C89.9167,395.5726 89.6559,395.8333 89.3333,395.8333 L77.6667,395.8333 C77.3447,395.8333 77.0833,395.5726 77.0833,395.25 C77.0833,394.9274 77.3447,394.6667 77.6667,394.6667 L89.3333,394.6667 C89.6559,394.6667 89.9167,394.9274 89.9167,395.25 M89.9167,397.5833 C89.9167,397.9059 89.6559,398.1667 89.3333,398.1667 L77.6667,398.1667 C77.3447,398.1667 77.0833,397.9059 77.0833,397.5833 C77.0833,397.2608 77.3447,397 77.6667,397 L89.3333,397 C89.6559,397 89.9167,397.2608 89.9167,397.5833 " fill="#99AAB5" style="stroke:;stroke-width:0.0;stroke-dasharray:;"/><text fill="#000000" font-family="Courier" font-size="14" lengthAdjust="spacing" textLength="92.7158" x="94" y="400.6982">heart06.png</text><path d="M91.9088,411.5918 L86.6588,406.3418 C86.4482,406.1313 86.1559,406 85.8333,406 C85.1893,406 84.6673,406.5227 84.6667,407.1667 C84.6667,407.4887 84.7973,407.7809 85.0085,407.9921 L82.7574,410.2432 L88.0074,415.4932 L90.2585,413.2421 C90.4697,413.4527 90.7613,413.5833 91.0833,413.5833 C91.7273,413.5833 92.2506,413.0607 92.25,412.4167 C92.25,412.0947 92.1193,411.803 91.9088,411.5918 " fill="#E1E8ED" style="stroke:;stroke-width:0.0;stroke-dasharray:;"/><path d="M85.8333,406 L77.0833,406 C75.7948,406 74.75,407.0448 74.75,408.3333 L74.75,424.6667 C74.75,425.9553 75.7948,427 77.0833,427 L89.9167,427 C91.2053,427 92.25,425.9553 92.25,424.6667 L92.25,412.4167 L87,412.4167 C86.4167,412.4167 85.8333,411.8333 85.8333,411.25 L85.8333,406 " fill="#CCD6DD" style="stroke:;stroke-width:0.0;stroke-dasharray:;"/><path d="M85.8333,406 L84.6667,406 L84.6667,411.25 C84.6667,412.5386 85.7114,413.5833 87,413.5833 L92.25,413.5833 L92.25,412.4167 L87,412.4167 C86.4167,412.4167 85.8333,411.8333 85.8333,411.25 L85.8333,406 M82.9167,410.6667 C82.9167,410.9887 82.6553,411.25 82.3333,411.25 L77.6667,411.25 C77.3447,411.25 77.0833,410.9887 77.0833,410.6667 C77.0833,410.3447 77.3447,410.0833 77.6667,410.0833 L82.3333,410.0833 C82.6553,410.0833 82.9167,410.3447 82.9167,410.6667 M82.9167,413 C82.9167,413.322 82.6553,413.5833 82.3333,413.5833 L77.6667,413.5833 C77.3447,413.5833 77.0833,413.322 77.0833,413 C77.0833,412.678 77.3447,412.4167 77.6667,412.4167 L82.3333,412.4167 C82.6553,412.4167 82.9167,412.678 82.9167,413 M89.9167,415.3333 C89.9167,415.6553 89.6559,415.9167 89.3333,415.9167 L77.6667,415.9167 C77.3447,415.9167 77.0833,415.6553 77.0833,415.3333 C77.0833,415.0113 77.3447,414.75 77.6667,414.75 L89.3333,414.75 C89.6559,414.75 89.9167,415.0113 89.9167,415.3333 M89.9167,417.6667 C89.9167,417.9893 89.6559,418.25 89.3333,418.25 L77.6667,418.25 C77.3447,418.25 77.0833,417.9893 77.0833,417.6667 C77.0833,417.3441 77.3447,417.0833 77.6667,417.0833 L89.3333,417.0833 C89.6559,417.0833 89.9167,417.3441 89.9167,417.6667 M89.9167,420 C89.9167,420.3226 89.6559,420.5833 89.3333,420.5833 L77.6667,420.5833 C77.3447,420.5833 77.0833,420.3226 77.0833,420 C77.0833,419.6774 77.3447,419.4167 77.6667,419.4167 L89.3333,419.4167 C89.6559,419.4167 89.9167,419.6774 89.9167,420 M89.9167,422.3333 C89.9167,422.6559 89.6559,422.9167 89.3333,422.9167 L77.6667,422.9167 C77.3447,422.9167 77.0833,422.6559 77.0833,422.3333 C77.0833,422.0108 77.3447,421.75 77.6667,421.75 L89.3333,421.75 C89.6559,421.75 89.9167,422.0108 89.9167,422.3333 " fill="#99AAB5" style="stroke:;stroke-width:0.0;stroke-dasharray:;"/><text fill="#000000" font-family="Courier" font-size="14" lengthAdjust="spacing" textLength="92.7158" x="94" y="425.4482">heart07.png</text><path d="M91.9088,436.3418 L86.6588,431.0918 C86.4482,430.8813 86.1559,430.75 85.8333,430.75 C85.1893,430.75 84.6673,431.2727 84.6667,431.9167 C84.6667,432.2387 84.7973,432.5309 85.0085,432.7421 L82.7574,434.9932 L88.0074,440.2432 L90.2585,437.9921 C90.4697,438.2027 90.7613,438.3333 91.0833,438.3333 C91.7273,438.3333 92.2506,437.8107 92.25,437.1667 C92.25,436.8447 92.1193,436.553 91.9088,436.3418 " fill="#E1E8ED" style="stroke:;stroke-width:0.0;stroke-dasharray:;"/><path d="M85.8333,430.75 L77.0833,430.75 C75.7948,430.75 74.75,431.7948 74.75,433.0833 L74.75,449.4167 C74.75,450.7053 75.7948,451.75 77.0833,451.75 L89.9167,451.75 C91.2053,451.75 92.25,450.7053 92.25,449.4167 L92.25,437.1667 L87,437.1667 C86.4167,437.1667 85.8333,436.5833 85.8333,436 L85.8333,430.75 " fill="#CCD6DD" style="stroke:;stroke-width:0.0;stroke-dasharray:;"/><path d="M85.8333,430.75 L84.6667,430.75 L84.6667,436 C84.6667,437.2886 85.7114,438.3333 87,438.3333 L92.25,438.3333 L92.25,437.1667 L87,437.1667 C86.4167,437.1667 85.8333,436.5833 85.8333,436 L85.8333,430.75 M82.9167,435.4167 C82.9167,435.7387 82.6553,436 82.3333,436 L77.6667,436 C77.3447,436 77.0833,435.7387 77.0833,435.4167 C77.0833,435.0947 77.3447,434.8333 77.6667,434.8333 L82.3333,434.8333 C82.6553,434.8333 82.9167,435.0947 82.9167,435.4167 M82.9167,437.75 C82.9167,438.072 82.6553,438.3333 82.3333,438.3333 L77.6667,438.3333 C77.3447,438.3333 77.0833,438.072 77.0833,437.75 C77.0833,437.428 77.3447,437.1667 77.6667,437.1667 L82.3333,437.1667 C82.6553,437.1667 82.9167,437.428 82.9167,437.75 M89.9167,440.0833 C89.9167,440.4053 89.6559,440.6667 89.3333,440.6667 L77.6667,440.6667 C77.3447,440.6667 77.0833,440.4053 77.0833,440.0833 C77.0833,439.7613 77.3447,439.5 77.6667,439.5 L89.3333,439.5 C89.6559,439.5 89.9167,439.7613 89.9167,440.0833 M89.9167,442.4167 C89.9167,442.7393 89.6559,443 89.3333,443 L77.6667,443 C77.3447,443 77.0833,442.7393 77.0833,442.4167 C77.0833,442.0941 77.3447,441.8333 77.6667,441.8333 L89.3333,441.8333 C89.6559,441.8333 89.9167,442.0941 89.9167,442.4167 M89.9167,444.75 C89.9167,445.0726 89.6559,445.3333 89.3333,445.3333 L77.6667,445.3333 C77.3447,445.3333 77.0833,445.0726 77.0833,444.75 C77.0833,444.4274 77.3447,444.1667 77.6667,444.1667 L89.3333,444.1667 C89.6559,444.1667 89.9167,444.4274 89.9167,444.75 M89.9167,447.0833 C89.9167,447.4059 89.6559,447.6667 89.3333,447.6667 L77.6667,447.6667 C77.3447,447.6667 77.0833,447.4059 77.0833,447.0833 C77.0833,446.7608 77.3447,446.5 77.6667,446.5 L89.3333,446.5 C89.6559,446.5 89.9167,446.7608 89.9167,447.0833 " fill="#99AAB5" style="stroke:;stroke-width:0.0;stroke-dasharray:;"/><text fill="#000000" font-family="Courier" font-size="14" lengthAdjust="spacing" textLength="92.7158" x="94" y="450.1982">heart08.png</text><path d="M91.9088,461.0918 L86.6588,455.8418 C86.4482,455.6313 86.1559,455.5 85.8333,455.5 C85.1893,455.5 84.6673,456.0227 84.6667,456.6667 C84.6667,456.9887 84.7973,457.2809 85.0085,457.4921 L82.7574,459.7432 L88.0074,464.9932 L90.2585,462.7421 C90.4697,462.9527 90.7613,463.0833 91.0833,463.0833 C91.7273,463.0833 92.2506,462.5607 92.25,461.9167 C92.25,461.5947 92.1193,461.303 91.9088,461.0918 " fill="#E1E8ED" style="stroke:;stroke-width:0.0;stroke-dasharray:;"/><path d="M85.8333,455.5 L77.0833,455.5 C75.7948,455.5 74.75,456.5448 74.75,457.8333 L74.75,474.1667 C74.75,475.4553 75.7948,476.5 77.0833,476.5 L89.9167,476.5 C91.2053,476.5 92.25,475.4553 92.25,474.1667 L92.25,461.9167 L87,461.9167 C86.4167,461.9167 85.8333,461.3333 85.8333,460.75 L85.8333,455.5 " fill="#CCD6DD" style="stroke:;stroke-width:0.0;stroke-dasharray:;"/><path d="M85.8333,455.5 L84.6667,455.5 L84.6667,460.75 C84.6667,462.0386 85.7114,463.0833 87,463.0833 L92.25,463.0833 L92.25,461.9167 L87,461.9167 C86.4167,461.9167 85.8333,461.3333 85.8333,460.75 L85.8333,455.5 M82.9167,460.1667 C82.9167,460.4887 82.6553,460.75 82.3333,460.75 L77.6667,460.75 C77.3447,460.75 77.0833,460.4887 77.0833,460.1667 C77.0833,459.8447 77.3447,459.5833 77.6667,459.5833 L82.3333,459.5833 C82.6553,459.5833 82.9167,459.8447 82.9167,460.1667 M82.9167,462.5 C82.9167,462.822 82.6553,463.0833 82.3333,463.0833 L77.6667,463.0833 C77.3447,463.0833 77.0833,462.822 77.0833,462.5 C77.0833,462.178 77.3447,461.9167 77.6667,461.9167 L82.3333,461.9167 C82.6553,461.9167 82.9167,462.178 82.9167,462.5 M89.9167,464.8333 C89.9167,465.1553 89.6559,465.4167 89.3333,465.4167 L77.6667,465.4167 C77.3447,465.4167 77.0833,465.1553 77.0833,464.8333 C77.0833,464.5113 77.3447,464.25 77.6667,464.25 L89.3333,464.25 C89.6559,464.25 89.9167,464.5113 89.9167,464.8333 M89.9167,467.1667 C89.9167,467.4893 89.6559,467.75 89.3333,467.75 L77.6667,467.75 C77.3447,467.75 77.0833,467.4893 77.0833,467.1667 C77.0833,466.8441 77.3447,466.5833 77.6667,466.5833 L89.3333,466.5833 C89.6559,466.5833 89.9167,466.8441 89.9167,467.1667 M89.9167,469.5 C89.9167,469.8226 89.6559,470.0833 89.3333,470.0833 L77.6667,470.0833 C77.3447,470.0833 77.0833,469.8226 77.0833,469.5 C77.0833,469.1774 77.3447,468.9167 77.6667,468.9167 L89.3333,468.9167 C89.6559,468.9167 89.9167,469.1774 89.9167,469.5 M89.9167,471.8333 C89.9167,472.1559 89.6559,472.4167 89.3333,472.4167 L77.6667,472.4167 C77.3447,472.4167 77.0833,472.1559 77.0833,471.8333 C77.0833,471.5108 77.3447,471.25 77.6667,471.25 L89.3333,471.25 C89.6559,471.25 89.9167,471.5108 89.9167,471.8333 " fill="#99AAB5" style="stroke:;stroke-width:0.0;stroke-dasharray:;"/><text fill="#000000" font-family="Courier" font-size="14" lengthAdjust="spacing" textLength="92.7158" x="94" y="474.9482">heart09.png</text><path d="M91.9088,485.8418 L86.6588,480.5918 C86.4482,480.3813 86.1559,480.25 85.8333,480.25 C85.1893,480.25 84.6673,480.7727 84.6667,481.4167 C84.6667,481.7387 84.7973,482.0309 85.0085,482.2421 L82.7574,484.4932 L88.0074,489.7432 L90.2585,487.4921 C90.4697,487.7027 90.7613,487.8333 91.0833,487.8333 C91.7273,487.8333 92.2506,487.3107 92.25,486.6667 C92.25,486.3447 92.1193,486.053 91.9088,485.8418 " fill="#E1E8ED" style="stroke:;stroke-width:0.0;stroke-dasharray:;"/><path d="M85.8333,480.25 L77.0833,480.25 C75.7948,480.25 74.75,481.2948 74.75,482.5833 L74.75,498.9167 C74.75,500.2053 75.7948,501.25 77.0833,501.25 L89.9167,501.25 C91.2053,501.25 92.25,500.2053 92.25,498.9167 L92.25,486.6667 L87,486.6667 C86.4167,486.6667 85.8333,486.0833 85.8333,485.5 L85.8333,480.25 " fill="#CCD6DD" style="stroke:;stroke-width:0.0;stroke-dasharray:;"/><path d="M85.8333,480.25 L84.6667,480.25 L84.6667,485.5 C84.6667,486.7886 85.7114,487.8333 87,487.8333 L92.25,487.8333 L92.25,486.6667 L87,486.6667 C86.4167,486.6667 85.8333,486.0833 85.8333,485.5 L85.8333,480.25 M82.9167,484.9167 C82.9167,485.2387 82.6553,485.5 82.3333,485.5 L77.6667,485.5 C77.3447,485.5 77.0833,485.2387 77.0833,484.9167 C77.0833,484.5947 77.3447,484.3333 77.6667,484.3333 L82.3333,484.3333 C82.6553,484.3333 82.9167,484.5947 82.9167,484.9167 M82.9167,487.25 C82.9167,487.572 82.6553,487.8333 82.3333,487.8333 L77.6667,487.8333 C77.3447,487.8333 77.0833,487.572 77.0833,487.25 C77.0833,486.928 77.3447,486.6667 77.6667,486.6667 L82.3333,486.6667 C82.6553,486.6667 82.9167,486.928 82.9167,487.25 M89.9167,489.5833 C89.9167,489.9053 89.6559,490.1667 89.3333,490.1667 L77.6667,490.1667 C77.3447,490.1667 77.0833,489.9053 77.0833,489.5833 C77.0833,489.2613 77.3447,489 77.6667,489 L89.3333,489 C89.6559,489 89.9167,489.2613 89.9167,489.5833 M89.9167,491.9167 C89.9167,492.2393 89.6559,492.5 89.3333,492.5 L77.6667,492.5 C77.3447,492.5 77.0833,492.2393 77.0833,491.9167 C77.0833,491.5941 77.3447,491.3333 77.6667,491.3333 L89.3333,491.3333 C89.6559,491.3333 89.9167,491.5941 89.9167,491.9167 M89.9167,494.25 C89.9167,494.5726 89.6559,494.8333 89.3333,494.8333 L77.6667,494.8333 C77.3447,494.8333 77.0833,494.5726 77.0833,494.25 C77.0833,493.9274 77.3447,493.6667 77.6667,493.6667 L89.3333,493.6667 C89.6559,493.6667 89.9167,493.9274 89.9167,494.25 M89.9167,496.5833 C89.9167,496.9059 89.6559,497.1667 89.3333,497.1667 L77.6667,497.1667 C77.3447,497.1667 77.0833,496.9059 77.0833,496.5833 C77.0833,496.2608 77.3447,496 77.6667,496 L89.3333,496 C89.6559,496 89.9167,496.2608 89.9167,496.5833 " fill="#99AAB5" style="stroke:;stroke-width:0.0;stroke-dasharray:;"/><text fill="#000000" font-family="Courier" font-size="14" lengthAdjust="spacing" textLength="92.7158" x="94" y="499.6982">heart10.png</text><path d="M91.9088,510.5918 L86.6588,505.3418 C86.4482,505.1313 86.1559,505 85.8333,505 C85.1893,505 84.6673,505.5227 84.6667,506.1667 C84.6667,506.4887 84.7973,506.7809 85.0085,506.9921 L82.7574,509.2432 L88.0074,514.4932 L90.2585,512.2421 C90.4697,512.4527 90.7613,512.5833 91.0833,512.5833 C91.7273,512.5833 92.2506,512.0607 92.25,511.4167 C92.25,511.0947 92.1193,510.803 91.9088,510.5918 " fill="#E1E8ED" style="stroke:;stroke-width:0.0;stroke-dasharray:;"/><path d="M85.8333,505 L77.0833,505 C75.7948,505 74.75,506.0448 74.75,507.3333 L74.75,523.6667 C74.75,524.9553 75.7948,526 77.0833,526 L89.9167,526 C91.2053,526 92.25,524.9553 92.25,523.6667 L92.25,511.4167 L87,511.4167 C86.4167,511.4167 85.8333,510.8333 85.8333,510.25 L85.8333,505 " fill="#CCD6DD" style="stroke:;stroke-width:0.0;stroke-dasharray:;"/><path d="M85.8333,505 L84.6667,505 L84.6667,510.25 C84.6667,511.5386 85.7114,512.5833 87,512.5833 L92.25,512.5833 L92.25,511.4167 L87,511.4167 C86.4167,511.4167 85.8333,510.8333 85.8333,510.25 L85.8333,505 M82.9167,509.6667 C82.9167,509.9887 82.6553,510.25 82.3333,510.25 L77.6667,510.25 C77.3447,510.25 77.0833,509.9887 77.0833,509.6667 C77.0833,509.3447 77.3447,509.0833 77.6667,509.0833 L82.3333,509.0833 C82.6553,509.0833 82.9167,509.3447 82.9167,509.6667 M82.9167,512 C82.9167,512.322 82.6553,512.5833 82.3333,512.5833 L77.6667,512.5833 C77.3447,512.5833 77.0833,512.322 77.0833,512 C77.0833,511.678 77.3447,511.4167 77.6667,511.4167 L82.3333,511.4167 C82.6553,511.4167 82.9167,511.678 82.9167,512 M89.9167,514.3333 C89.9167,514.6553 89.6559,514.9167 89.3333,514.9167 L77.6667,514.9167 C77.3447,514.9167 77.0833,514.6553 77.0833,514.3333 C77.0833,514.0113 77.3447,513.75 77.6667,513.75 L89.3333,513.75 C89.6559,513.75 89.9167,514.0113 89.9167,514.3333 M89.9167,516.6667 C89.9167,516.9893 89.6559,517.25 89.3333,517.25 L77.6667,517.25 C77.3447,517.25 77.0833,516.9893 77.0833,516.6667 C77.0833,516.3441 77.3447,516.0833 77.6667,516.0833 L89.3333,516.0833 C89.6559,516.0833 89.9167,516.3441 89.9167,516.6667 M89.9167,519 C89.9167,519.3226 89.6559,519.5833 89.3333,519.5833 L77.6667,519.5833 C77.3447,519.5833 77.0833,519.3226 77.0833,519 C77.0833,518.6774 77.3447,518.4167 77.6667,518.4167 L89.3333,518.4167 C89.6559,518.4167 89.9167,518.6774 89.9167,519 M89.9167,521.3333 C89.9167,521.6559 89.6559,521.9167 89.3333,521.9167 L77.6667,521.9167 C77.3447,521.9167 77.0833,521.6559 77.0833,521.3333 C77.0833,521.0108 77.3447,520.75 77.6667,520.75 L89.3333,520.75 C89.6559,520.75 89.9167,521.0108 89.9167,521.3333 " fill="#99AAB5" style="stroke:;stroke-width:0.0;stroke-dasharray:;"/><text fill="#000000" font-family="Courier" font-size="14" lengthAdjust="spacing" textLength="67.4297" x="94" y="524.4482">idle.png</text><path d="M91.9088,535.3418 L86.6588,530.0918 C86.4482,529.8813 86.1559,529.75 85.8333,529.75 C85.1893,529.75 84.6673,530.2727 84.6667,530.9167 C84.6667,531.2387 84.7973,531.5309 85.0085,531.7421 L82.7574,533.9932 L88.0074,539.2432 L90.2585,536.9921 C90.4697,537.2027 90.7613,537.3333 91.0833,537.3333 C91.7273,537.3333 92.2506,536.8107 92.25,536.1667 C92.25,535.8447 92.1193,535.553 91.9088,535.3418 " fill="#E1E8ED" style="stroke:;stroke-width:0.0;stroke-dasharray:;"/><path d="M85.8333,529.75 L77.0833,529.75 C75.7948,529.75 74.75,530.7948 74.75,532.0833 L74.75,548.4167 C74.75,549.7053 75.7948,550.75 77.0833,550.75 L89.9167,550.75 C91.2053,550.75 92.25,549.7053 92.25,548.4167 L92.25,536.1667 L87,536.1667 C86.4167,536.1667 85.8333,535.5833 85.8333,535 L85.8333,529.75 " fill="#CCD6DD" style="stroke:;stroke-width:0.0;stroke-dasharray:;"/><path d="M85.8333,529.75 L84.6667,529.75 L84.6667,535 C84.6667,536.2886 85.7114,537.3333 87,537.3333 L92.25,537.3333 L92.25,536.1667 L87,536.1667 C86.4167,536.1667 85.8333,535.5833 85.8333,535 L85.8333,529.75 M82.9167,534.4167 C82.9167,534.7387 82.6553,535 82.3333,535 L77.6667,535 C77.3447,535 77.0833,534.7387 77.0833,534.4167 C77.0833,534.0947 77.3447,533.8333 77.6667,533.8333 L82.3333,533.8333 C82.6553,533.8333 82.9167,534.0947 82.9167,534.4167 M82.9167,536.75 C82.9167,537.072 82.6553,537.3333 82.3333,537.3333 L77.6667,537.3333 C77.3447,537.3333 77.0833,537.072 77.0833,536.75 C77.0833,536.428 77.3447,536.1667 77.6667,536.1667 L82.3333,536.1667 C82.6553,536.1667 82.9167,536.428 82.9167,536.75 M89.9167,539.0833 C89.9167,539.4053 89.6559,539.6667 89.3333,539.6667 L77.6667,539.6667 C77.3447,539.6667 77.0833,539.4053 77.0833,539.0833 C77.0833,538.7613 77.3447,538.5 77.6667,538.5 L89.3333,538.5 C89.6559,538.5 89.9167,538.7613 89.9167,539.0833 M89.9167,541.4167 C89.9167,541.7393 89.6559,542 89.3333,542 L77.6667,542 C77.3447,542 77.0833,541.7393 77.0833,541.4167 C77.0833,541.0941 77.3447,540.8333 77.6667,540.8333 L89.3333,540.8333 C89.6559,540.8333 89.9167,541.0941 89.9167,541.4167 M89.9167,543.75 C89.9167,544.0726 89.6559,544.3333 89.3333,544.3333 L77.6667,544.3333 C77.3447,544.3333 77.0833,544.0726 77.0833,543.75 C77.0833,543.4274 77.3447,543.1667 77.6667,543.1667 L89.3333,543.1667 C89.6559,543.1667 89.9167,543.4274 89.9167,543.75 M89.9167,546.0833 C89.9167,546.4059 89.6559,546.6667 89.3333,546.6667 L77.6667,546.6667 C77.3447,546.6667 77.0833,546.4059 77.0833,546.0833 C77.0833,545.7608 77.3447,545.5 77.6667,545.5 L89.3333,545.5 C89.6559,545.5 89.9167,545.7608 89.9167,546.0833 " fill="#99AAB5" style="stroke:;stroke-width:0.0;stroke-dasharray:;"/><text fill="#000000" font-family="Courier" font-size="14" lengthAdjust="spacing" textLength="84.2871" x="94" y="549.1982">walk00.png</text><path d="M91.9088,560.0918 L86.6588,554.8418 C86.4482,554.6313 86.1559,554.5 85.8333,554.5 C85.1893,554.5 84.6673,555.0227 84.6667,555.6667 C84.6667,555.9887 84.7973,556.2809 85.0085,556.4921 L82.7574,558.7432 L88.0074,563.9932 L90.2585,561.7421 C90.4697,561.9527 90.7613,562.0833 91.0833,562.0833 C91.7273,562.0833 92.2506,561.5607 92.25,560.9167 C92.25,560.5947 92.1193,560.303 91.9088,560.0918 " fill="#E1E8ED" style="stroke:;stroke-width:0.0;stroke-dasharray:;"/><path d="M85.8333,554.5 L77.0833,554.5 C75.7948,554.5 74.75,555.5448 74.75,556.8333 L74.75,573.1667 C74.75,574.4553 75.7948,575.5 77.0833,575.5 L89.9167,575.5 C91.2053,575.5 92.25,574.4553 92.25,573.1667 L92.25,560.9167 L87,560.9167 C86.4167,560.9167 85.8333,560.3333 85.8333,559.75 L85.8333,554.5 " fill="#CCD6DD" style="stroke:;stroke-width:0.0;stroke-dasharray:;"/><path d="M85.8333,554.5 L84.6667,554.5 L84.6667,559.75 C84.6667,561.0386 85.7114,562.0833 87,562.0833 L92.25,562.0833 L92.25,560.9167 L87,560.9167 C86.4167,560.9167 85.8333,560.3333 85.8333,559.75 L85.8333,554.5 M82.9167,559.1667 C82.9167,559.4887 82.6553,559.75 82.3333,559.75 L77.6667,559.75 C77.3447,559.75 77.0833,559.4887 77.0833,559.1667 C77.0833,558.8447 77.3447,558.5833 77.6667,558.5833 L82.3333,558.5833 C82.6553,558.5833 82.9167,558.8447 82.9167,559.1667 M82.9167,561.5 C82.9167,561.822 82.6553,562.0833 82.3333,562.0833 L77.6667,562.0833 C77.3447,562.0833 77.0833,561.822 77.0833,561.5 C77.0833,561.178 77.3447,560.9167 77.6667,560.9167 L82.3333,560.9167 C82.6553,560.9167 82.9167,561.178 82.9167,561.5 M89.9167,563.8333 C89.9167,564.1553 89.6559,564.4167 89.3333,564.4167 L77.6667,564.4167 C77.3447,564.4167 77.0833,564.1553 77.0833,563.8333 C77.0833,563.5113 77.3447,563.25 77.6667,563.25 L89.3333,563.25 C89.6559,563.25 89.9167,563.5113 89.9167,563.8333 M89.9167,566.1667 C89.9167,566.4893 89.6559,566.75 89.3333,566.75 L77.6667,566.75 C77.3447,566.75 77.0833,566.4893 77.0833,566.1667 C77.0833,565.8441 77.3447,565.5833 77.6667,565.5833 L89.3333,565.5833 C89.6559,565.5833 89.9167,565.8441 89.9167,566.1667 M89.9167,568.5 C89.9167,568.8226 89.6559,569.0833 89.3333,569.0833 L77.6667,569.0833 C77.3447,569.0833 77.0833,568.8226 77.0833,568.5 C77.0833,568.1774 77.3447,567.9167 77.6667,567.9167 L89.3333,567.9167 C89.6559,567.9167 89.9167,568.1774 89.9167,568.5 M89.9167,570.8333 C89.9167,571.1559 89.6559,571.4167 89.3333,571.4167 L77.6667,571.4167 C77.3447,571.4167 77.0833,571.1559 77.0833,570.8333 C77.0833,570.5108 77.3447,570.25 77.6667,570.25 L89.3333,570.25 C89.6559,570.25 89.9167,570.5108 89.9167,570.8333 " fill="#99AAB5" style="stroke:;stroke-width:0.0;stroke-dasharray:;"/><text fill="#000000" font-family="Courier" font-size="14" lengthAdjust="spacing" textLength="84.2871" x="94" y="573.9482">walk01.png</text><path d="M91.9088,584.8418 L86.6588,579.5918 C86.4482,579.3813 86.1559,579.25 85.8333,579.25 C85.1893,579.25 84.6673,579.7727 84.6667,580.4167 C84.6667,580.7387 84.7973,581.0309 85.0085,581.2421 L82.7574,583.4932 L88.0074,588.7432 L90.2585,586.4921 C90.4697,586.7027 90.7613,586.8333 91.0833,586.8333 C91.7273,586.8333 92.2506,586.3107 92.25,585.6667 C92.25,585.3447 92.1193,585.053 91.9088,584.8418 " fill="#E1E8ED" style="stroke:;stroke-width:0.0;stroke-dasharray:;"/><path d="M85.8333,579.25 L77.0833,579.25 C75.7948,579.25 74.75,580.2948 74.75,581.5833 L74.75,597.9167 C74.75,599.2053 75.7948,600.25 77.0833,600.25 L89.9167,600.25 C91.2053,600.25 92.25,599.2053 92.25,597.9167 L92.25,585.6667 L87,585.6667 C86.4167,585.6667 85.8333,585.0833 85.8333,584.5 L85.8333,579.25 " fill="#CCD6DD" style="stroke:;stroke-width:0.0;stroke-dasharray:;"/><path d="M85.8333,579.25 L84.6667,579.25 L84.6667,584.5 C84.6667,585.7886 85.7114,586.8333 87,586.8333 L92.25,586.8333 L92.25,585.6667 L87,585.6667 C86.4167,585.6667 85.8333,585.0833 85.8333,584.5 L85.8333,579.25 M82.9167,583.9167 C82.9167,584.2387 82.6553,584.5 82.3333,584.5 L77.6667,584.5 C77.3447,584.5 77.0833,584.2387 77.0833,583.9167 C77.0833,583.5947 77.3447,583.3333 77.6667,583.3333 L82.3333,583.3333 C82.6553,583.3333 82.9167,583.5947 82.9167,583.9167 M82.9167,586.25 C82.9167,586.572 82.6553,586.8333 82.3333,586.8333 L77.6667,586.8333 C77.3447,586.8333 77.0833,586.572 77.0833,586.25 C77.0833,585.928 77.3447,585.6667 77.6667,585.6667 L82.3333,585.6667 C82.6553,585.6667 82.9167,585.928 82.9167,586.25 M89.9167,588.5833 C89.9167,588.9053 89.6559,589.1667 89.3333,589.1667 L77.6667,589.1667 C77.3447,589.1667 77.0833,588.9053 77.0833,588.5833 C77.0833,588.2613 77.3447,588 77.6667,588 L89.3333,588 C89.6559,588 89.9167,588.2613 89.9167,588.5833 M89.9167,590.9167 C89.9167,591.2393 89.6559,591.5 89.3333,591.5 L77.6667,591.5 C77.3447,591.5 77.0833,591.2393 77.0833,590.9167 C77.0833,590.5941 77.3447,590.3333 77.6667,590.3333 L89.3333,590.3333 C89.6559,590.3333 89.9167,590.5941 89.9167,590.9167 M89.9167,593.25 C89.9167,593.5726 89.6559,593.8333 89.3333,593.8333 L77.6667,593.8333 C77.3447,593.8333 77.0833,593.5726 77.0833,593.25 C77.0833,592.9274 77.3447,592.6667 77.6667,592.6667 L89.3333,592.6667 C89.6559,592.6667 89.9167,592.9274 89.9167,593.25 M89.9167,595.5833 C89.9167,595.9059 89.6559,596.1667 89.3333,596.1667 L77.6667,596.1667 C77.3447,596.1667 77.0833,595.9059 77.0833,595.5833 C77.0833,595.2608 77.3447,595 77.6667,595 L89.3333,595 C89.6559,595 89.9167,595.2608 89.9167,595.5833 " fill="#99AAB5" style="stroke:;stroke-width:0.0;stroke-dasharray:;"/><text fill="#000000" font-family="Courier" font-size="14" lengthAdjust="spacing" textLength="84.2871" x="94" y="598.6982">walk02.png</text><path d="M91.9088,609.5918 L86.6588,604.3418 C86.4482,604.1313 86.1559,604 85.8333,604 C85.1893,604 84.6673,604.5227 84.6667,605.1667 C84.6667,605.4887 84.7973,605.7809 85.0085,605.9921 L82.7574,608.2432 L88.0074,613.4932 L90.2585,611.2421 C90.4697,611.4527 90.7613,611.5833 91.0833,611.5833 C91.7273,611.5833 92.2506,611.0607 92.25,610.4167 C92.25,610.0947 92.1193,609.803 91.9088,609.5918 " fill="#E1E8ED" style="stroke:;stroke-width:0.0;stroke-dasharray:;"/><path d="M85.8333,604 L77.0833,604 C75.7948,604 74.75,605.0448 74.75,606.3333 L74.75,622.6667 C74.75,623.9553 75.7948,625 77.0833,625 L89.9167,625 C91.2053,625 92.25,623.9553 92.25,622.6667 L92.25,610.4167 L87,610.4167 C86.4167,610.4167 85.8333,609.8333 85.8333,609.25 L85.8333,604 " fill="#CCD6DD" style="stroke:;stroke-width:0.0;stroke-dasharray:;"/><path d="M85.8333,604 L84.6667,604 L84.6667,609.25 C84.6667,610.5386 85.7114,611.5833 87,611.5833 L92.25,611.5833 L92.25,610.4167 L87,610.4167 C86.4167,610.4167 85.8333,609.8333 85.8333,609.25 L85.8333,604 M82.9167,608.6667 C82.9167,608.9887 82.6553,609.25 82.3333,609.25 L77.6667,609.25 C77.3447,609.25 77.0833,608.9887 77.0833,608.6667 C77.0833,608.3447 77.3447,608.0833 77.6667,608.0833 L82.3333,608.0833 C82.6553,608.0833 82.9167,608.3447 82.9167,608.6667 M82.9167,611 C82.9167,611.322 82.6553,611.5833 82.3333,611.5833 L77.6667,611.5833 C77.3447,611.5833 77.0833,611.322 77.0833,611 C77.0833,610.678 77.3447,610.4167 77.6667,610.4167 L82.3333,610.4167 C82.6553,610.4167 82.9167,610.678 82.9167,611 M89.9167,613.3333 C89.9167,613.6553 89.6559,613.9167 89.3333,613.9167 L77.6667,613.9167 C77.3447,613.9167 77.0833,613.6553 77.0833,613.3333 C77.0833,613.0113 77.3447,612.75 77.6667,612.75 L89.3333,612.75 C89.6559,612.75 89.9167,613.0113 89.9167,613.3333 M89.9167,615.6667 C89.9167,615.9893 89.6559,616.25 89.3333,616.25 L77.6667,616.25 C77.3447,616.25 77.0833,615.9893 77.0833,615.6667 C77.0833,615.3441 77.3447,615.0833 77.6667,615.0833 L89.3333,615.0833 C89.6559,615.0833 89.9167,615.3441 89.9167,615.6667 M89.9167,618 C89.9167,618.3226 89.6559,618.5833 89.3333,618.5833 L77.6667,618.5833 C77.3447,618.5833 77.0833,618.3226 77.0833,618 C77.0833,617.6774 77.3447,617.4167 77.6667,617.4167 L89.3333,617.4167 C89.6559,617.4167 89.9167,617.6774 89.9167,618 M89.9167,620.3333 C89.9167,620.6559 89.6559,620.9167 89.3333,620.9167 L77.6667,620.9167 C77.3447,620.9167 77.0833,620.6559 77.0833,620.3333 C77.0833,620.0108 77.3447,619.75 77.6667,619.75 L89.3333,619.75 C89.6559,619.75 89.9167,620.0108 89.9167,620.3333 " fill="#99AAB5" style="stroke:;stroke-width:0.0;stroke-dasharray:;"/><text fill="#000000" font-family="Courier" font-size="14" lengthAdjust="spacing" textLength="84.2871" x="94" y="623.4482">walk03.png</text><path d="M70.9088,634.3418 L65.6588,629.0918 C65.4482,628.8813 65.1559,628.75 64.8333,628.75 C64.1893,628.75 63.6673,629.2727 63.6667,629.9167 C63.6667,630.2387 63.7973,630.5309 64.0085,630.7421 L61.7574,632.9932 L67.0074,638.2432 L69.2585,635.9921 C69.4697,636.2027 69.7613,636.3333 70.0833,636.3333 C70.7273,636.3333 71.2506,635.8107 71.25,635.1667 C71.25,634.8447 71.1193,634.553 70.9088,634.3418 " fill="#E1E8ED" style="stroke:;stroke-width:0.0;stroke-dasharray:;"/><path d="M64.8333,628.75 L56.0833,628.75 C54.7948,628.75 53.75,629.7948 53.75,631.0833 L53.75,647.4167 C53.75,648.7053 54.7948,649.75 56.0833,649.75 L68.9167,649.75 C70.2053,649.75 71.25,648.7053 71.25,647.4167 L71.25,635.1667 L66,635.1667 C65.4167,635.1667 64.8333,634.5833 64.8333,634 L64.8333,628.75 " fill="#CCD6DD" style="stroke:;stroke-width:0.0;stroke-dasharray:;"/><path d="M64.8333,628.75 L63.6667,628.75 L63.6667,634 C63.6667,635.2886 64.7114,636.3333 66,636.3333 L71.25,636.3333 L71.25,635.1667 L66,635.1667 C65.4167,635.1667 64.8333,634.5833 64.8333,634 L64.8333,628.75 M61.9167,633.4167 C61.9167,633.7387 61.6553,634 61.3333,634 L56.6667,634 C56.3447,634 56.0833,633.7387 56.0833,633.4167 C56.0833,633.0947 56.3447,632.8333 56.6667,632.8333 L61.3333,632.8333 C61.6553,632.8333 61.9167,633.0947 61.9167,633.4167 M61.9167,635.75 C61.9167,636.072 61.6553,636.3333 61.3333,636.3333 L56.6667,636.3333 C56.3447,636.3333 56.0833,636.072 56.0833,635.75 C56.0833,635.428 56.3447,635.1667 56.6667,635.1667 L61.3333,635.1667 C61.6553,635.1667 61.9167,635.428 61.9167,635.75 M68.9167,638.0833 C68.9167,638.4053 68.6559,638.6667 68.3333,638.6667 L56.6667,638.6667 C56.3447,638.6667 56.0833,638.4053 56.0833,638.0833 C56.0833,637.7613 56.3447,637.5 56.6667,637.5 L68.3333,637.5 C68.6559,637.5 68.9167,637.7613 68.9167,638.0833 M68.9167,640.4167 C68.9167,640.7393 68.6559,641 68.3333,641 L56.6667,641 C56.3447,641 56.0833,640.7393 56.0833,640.4167 C56.0833,640.0941 56.3447,639.8333 56.6667,639.8333 L68.3333,639.8333 C68.6559,639.8333 68.9167,640.0941 68.9167,640.4167 M68.9167,642.75 C68.9167,643.0726 68.6559,643.3333 68.3333,643.3333 L56.6667,643.3333 C56.3447,643.3333 56.0833,643.0726 56.0833,642.75 C56.0833,642.4274 56.3447,642.1667 56.6667,642.1667 L68.3333,642.1667 C68.6559,642.1667 68.9167,642.4274 68.9167,642.75 M68.9167,645.0833 C68.9167,645.4059 68.6559,645.6667 68.3333,645.6667 L56.6667,645.6667 C56.3447,645.6667 56.0833,645.4059 56.0833,645.0833 C56.0833,644.7608 56.3447,644.5 56.6667,644.5 L68.3333,644.5 C68.6559,644.5 68.9167,644.7608 68.9167,645.0833 " fill="#99AAB5" style="stroke:;stroke-width:0.0;stroke-dasharray:;"/><text fill="#000000" font-family="Courier" font-size="14" lengthAdjust="spacing" textLength="134.8594" x="73" y="648.1982">endlessrunner.py</text><path d="M70.9088,659.0918 L65.6588,653.8418 C65.4482,653.6313 65.1559,653.5 64.8333,653.5 C64.1893,653.5 63.6673,654.0227 63.6667,654.6667 C63.6667,654.9887 63.7973,655.2809 64.0085,655.4921 L61.7574,657.7432 L67.0074,662.9932 L69.2585,660.7421 C69.4697,660.9527 69.7613,661.0833 70.0833,661.0833 C70.7273,661.0833 71.2506,660.5607 71.25,659.9167 C71.25,659.5947 71.1193,659.303 70.9088,659.0918 " fill="#E1E8ED" style="stroke:;stroke-width:0.0;stroke-dasharray:;"/><path d="M64.8333,653.5 L56.0833,653.5 C54.7948,653.5 53.75,654.5448 53.75,655.8333 L53.75,672.1667 C53.75,673.4553 54.7948,674.5 56.0833,674.5 L68.9167,674.5 C70.2053,674.5 71.25,673.4553 71.25,672.1667 L71.25,659.9167 L66,659.9167 C65.4167,659.9167 64.8333,659.3333 64.8333,658.75 L64.8333,653.5 " fill="#CCD6DD" style="stroke:;stroke-width:0.0;stroke-dasharray:;"/><path d="M64.8333,653.5 L63.6667,653.5 L63.6667,658.75 C63.6667,660.0386 64.7114,661.0833 66,661.0833 L71.25,661.0833 L71.25,659.9167 L66,659.9167 C65.4167,659.9167 64.8333,659.3333 64.8333,658.75 L64.8333,653.5 M61.9167,658.1667 C61.9167,658.4887 61.6553,658.75 61.3333,658.75 L56.6667,658.75 C56.3447,658.75 56.0833,658.4887 56.0833,658.1667 C56.0833,657.8447 56.3447,657.5833 56.6667,657.5833 L61.3333,657.5833 C61.6553,657.5833 61.9167,657.8447 61.9167,658.1667 M61.9167,660.5 C61.9167,660.822 61.6553,661.0833 61.3333,661.0833 L56.6667,661.0833 C56.3447,661.0833 56.0833,660.822 56.0833,660.5 C56.0833,660.178 56.3447,659.9167 56.6667,659.9167 L61.3333,659.9167 C61.6553,659.9167 61.9167,660.178 61.9167,660.5 M68.9167,662.8333 C68.9167,663.1553 68.6559,663.4167 68.3333,663.4167 L56.6667,663.4167 C56.3447,663.4167 56.0833,663.1553 56.0833,662.8333 C56.0833,662.5113 56.3447,662.25 56.6667,662.25 L68.3333,662.25 C68.6559,662.25 68.9167,662.5113 68.9167,662.8333 M68.9167,665.1667 C68.9167,665.4893 68.6559,665.75 68.3333,665.75 L56.6667,665.75 C56.3447,665.75 56.0833,665.4893 56.0833,665.1667 C56.0833,664.8441 56.3447,664.5833 56.6667,664.5833 L68.3333,664.5833 C68.6559,664.5833 68.9167,664.8441 68.9167,665.1667 M68.9167,667.5 C68.9167,667.8226 68.6559,668.0833 68.3333,668.0833 L56.6667,668.0833 C56.3447,668.0833 56.0833,667.8226 56.0833,667.5 C56.0833,667.1774 56.3447,666.9167 56.6667,666.9167 L68.3333,666.9167 C68.6559,666.9167 68.9167,667.1774 68.9167,667.5 M68.9167,669.8333 C68.9167,670.1559 68.6559,670.4167 68.3333,670.4167 L56.6667,670.4167 C56.3447,670.4167 56.0833,670.1559 56.0833,669.8333 C56.0833,669.5108 56.3447,669.25 56.6667,669.25 L68.3333,669.25 C68.6559,669.25 68.9167,669.5108 68.9167,669.8333 " fill="#99AAB5" style="stroke:;stroke-width:0.0;stroke-dasharray:;"/><text fill="#000000" font-family="Courier" font-size="14" lengthAdjust="spacing" textLength="101.1445" x="73" y="672.9482">pgzhelper.py</text><!--SRC=[ZTDVJy8m403mztwAUuG7nZecmpqHGKqG8W7XlOvZD6wtfNym-Eaj4cDCZDnZhxzhUtVfs3fbt5vNQ4M_L3NQFj8khApnH6ZwkbPb21QgSDx6STHIoO6I2nCk771XoeKtL-41GtCOHL-SPBg4wGPCbp8TjzuXqsLCDsAwMvwJr-UXG-mgUbVL6sEsNqpoMC9Z_mpsrofgJt-hjlmuODLUn3ZiNJwmM5QAt6OnXoCQgni26ILnaaPPPwqShB65E0CfSpdAPGQRbmcSjxkYyxYSWssyAH1ssZgZNxqB-LqnKqS5AqzErvZ3Suiqcpvz1-2UZjeqL2CvCTikVi0mxTtfyuqcl0Is2p75lVAL2nb5izDKvk7sXzv8p1MLFdGc1oGnQSAvvfG3-Qhw1000]--></g></svg>